<svg xmlns="http://www.w3.org/2000/svg" version="1.1" xmlns:xlink="http://www.w3.org/1999/xlink" xmlns:svgjs="http://svgjs.dev/svgjs" width="1920" height="1200" preserveAspectRatio="none" viewBox="0 0 1920 1200"><g mask="url(&quot;#SvgjsMask1040&quot;)" fill="none"><rect width="1920" height="1200" x="0" y="0" fill="#0e2a47"></rect><path d="M1568.383,1353.84C1680.54,1352.237,1755.63,1253.043,1812.426,1156.317C1870.228,1057.878,1920.493,943.738,1869.021,841.846C1813.493,731.925,1691.531,673.911,1568.383,673.218C1443.971,672.518,1319.495,728.187,1261.83,838.431C1207.371,942.546,1251.885,1062.486,1311.949,1163.472C1370.276,1261.538,1454.294,1355.471,1568.383,1353.84" fill="rgba(28, 83, 142, 0.4)" class="triangle-float2"></path><path d="M271.477,413.688C315.091,412.013,355.408,391.049,377.857,353.619C400.986,315.054,406.515,266.142,382.934,227.852C360.275,191.06,314.62,178.473,271.477,180.887C232.691,183.057,201.333,206.946,179.717,239.223C154.53,276.833,128.865,322.311,149.936,362.373C171.877,404.089,224.378,415.497,271.477,413.688" fill="rgba(28, 83, 142, 0.4)" class="triangle-float1"></path><path d="M448.736,864.774C570.077,858.953,663.391,771.051,724.769,666.216C786.959,559.994,823.77,432.394,765.301,324.079C704.384,211.228,576.974,155.976,448.736,154.858C318.34,153.722,189.849,206.834,122.467,318.477C52.939,433.676,53.683,579.579,122.676,695.099C190.01,807.841,317.568,871.066,448.736,864.774" fill="rgba(28, 83, 142, 0.4)" class="triangle-float2"></path><path d="M1703.023,694.585C1781.429,688.894,1826.343,613.013,1862.928,543.433C1896.163,480.225,1921.245,407.565,1886.847,344.982C1851.437,280.556,1776.506,254.712,1703.023,252.502C1624.656,250.145,1541.654,267.537,1498.995,333.317C1452.987,404.261,1455.552,496.357,1497.133,569.983C1539.413,644.848,1617.27,700.809,1703.023,694.585" fill="rgba(28, 83, 142, 0.4)" class="triangle-float2"></path><path d="M323.976,707.866C390.858,708.234,444.971,660.382,478.875,602.729C513.345,544.113,533.405,470.849,497.215,413.279C462.541,358.121,389.091,354.156,323.976,356.326C263.775,358.332,201.421,373.025,169.643,424.194C136.307,477.872,141.804,545.537,172.001,601.041C203.718,659.339,257.61,707.501,323.976,707.866" fill="rgba(28, 83, 142, 0.4)" class="triangle-float3"></path><path d="M-248.95 703.95 a303.08 303.08 0 1 0 606.16 0 a303.08 303.08 0 1 0 -606.16 0z" fill="rgba(28, 83, 142, 0.4)" class="triangle-float3"></path><path d="M1077.175,259.726C1136.298,264.247,1198.314,238.7,1226.005,186.267C1252.415,136.26,1227.301,78.959,1198.277,30.422C1170.275,-16.405,1131.705,-60.789,1077.175,-62.623C1019.998,-64.546,966.606,-29.432,941.089,21.771C917.812,68.479,937.248,120.866,963.156,166.168C989.315,211.909,1024.635,255.709,1077.175,259.726" fill="rgba(28, 83, 142, 0.4)" class="triangle-float3"></path><path d="M860.8 818.82 a289.06 289.06 0 1 0 578.12 0 a289.06 289.06 0 1 0 -578.12 0z" fill="rgba(28, 83, 142, 0.4)" class="triangle-float3"></path></g><defs><mask id="SvgjsMask1040"><rect width="1920" height="1200" fill="#ffffff"></rect></mask><style>
                @keyframes float1 {
                    0%{transform: translate(0, 0)}
                    50%{transform: translate(-10px, 0)}
                    100%{transform: translate(0, 0)}
                }

                .triangle-float1 {
                    animation: float1 5s infinite;
                }

                @keyframes float2 {
                    0%{transform: translate(0, 0)}
                    50%{transform: translate(-5px, -5px)}
                    100%{transform: translate(0, 0)}
                }

                .triangle-float2 {
                    animation: float2 4s infinite;
                }

                @keyframes float3 {
                    0%{transform: translate(0, 0)}
                    50%{transform: translate(0, -10px)}
                    100%{transform: translate(0, 0)}
                }

                .triangle-float3 {
                    animation: float3 6s infinite;
                }
            </style></defs></svg>